PathFileType	4	(X/Y/Z)	Patient4_TMGait_0pt5_01_right_11.trc.trc
DataRate	CameraRate	NumFrames	NumMarkers	Units	OrigDataRate	OrigDataStartFrame	OrigNumFrames
73.298429319372	73.298429319372	4	33	mm	73.298429319372	18	       141
Frame#	Time	L.ASIS			Sacral			L.Shoulder			Chest			R.Shoulder			Neck			R.ASIS			R.Thigh.Superior			R.Thigh.Lateral			R.Thigh.Inferior			R.Patella			L.Thigh.Superior			L.Thigh.Lateral			L.Thigh.Inferior			L.Patella			L.Shank.Superior			L.Shank.Lateral			L.Shank.Inferior			R.Shank.Superior			R.Shank.Lateral			R.Shank.Inferior			R.Heel			R.Midfoot.Superior			R.Midfoot.Lateral			R.Toe			L.Heel			L.Midfoot.Lateral			L.Midfoot.Superior			L.Toe			L.Elbow			L.Wrist			R.Elbow			R.Wrist			
		X1	Y1	Z1	X2	Y2	Z2	X3	Y3	Z3	X4	Y4	Z4	X5	Y5	Z5	X6	Y6	Z6	X7	Y7	Z7	X8	Y8	Z8	X9	Y9	Z9	X10	Y10	Z10	X11	Y11	Z11	X12	Y12	Z12	X13	Y13	Z13	X14	Y14	Z14	X15	Y15	Z15	X16	Y16	Z16	X17	Y17	Z17	X18	Y18	Z18	X19	Y19	Z19	X20	Y20	Z20	X21	Y21	Z21	X22	Y22	Z22	X23	Y23	Z23	X24	Y24	Z24	X25	Y25	Z25	X26	Y26	Z26	X27	Y27	Z27	X28	Y28	Z28	X29	Y29	Z29	X30	Y30	Z30	X31	Y31	Z31	X32	Y32	Z32	X33	Y33	Z33	

18	14.351928571429	772.742052677138	958.506657536010	291.194535584116	546.187704647654	1005.607354408806	426.473488743491	738.237079022469	1432.333466876537	257.275936958691	821.029838528675	1365.014989277833	430.396402336388	719.014705301712	1441.035984325453	594.682569137883	718.765019699640	1495.858219149358	406.654690203745	759.833233696805	945.083694161551	566.104129867594	830.599576271782	765.095474088755	541.563377382252	777.365487238035	645.109467201414	610.121447027927	866.139892767537	603.795455494903	532.475170948038	896.646861974428	523.367657902002	547.156923829197	776.362798728309	732.655411808019	323.019829176457	665.004404816203	637.445248435763	255.519848178820	721.511906308146	546.441161291909	325.028134171613	706.580394958081	480.837908645761	334.648297463272	678.219543074991	414.437616014478	326.435342216201	585.819328851905	303.070258909816	275.679519677893	629.503278334322	192.218197902955	352.128466456792	885.283147159353	437.098533764098	555.440515205528	839.741042158877	320.324279917529	617.509457318884	913.445678227238	238.764254396196	564.931770776852	829.655127069103	47.938340894560	534.174487202462	989.659463029791	129.353964502808	577.754642388397	913.600127364128	48.662652473188	608.149158168289	1114.894040478390	96.313281021571	603.005163662913	495.136372188269	38.873372337695	398.214745670218	568.179942007593	35.084873101924	316.705564563238	652.467896426529	95.736442587006	341.961225026597	779.952576174874	42.110932143829	313.284969215886	797.912918184485	1103.537825133453	99.507426025754	1043.702211393305	1017.405529104353	98.258246545642	566.782738262280	1131.254532106148	698.653982061746	523.068579575431	876.030870724649	721.587932684190	
19	14.365571428571	774.013151134808	957.471722204578	293.241941824284	547.251970760211	1004.035338006165	428.084947576171	738.739571258782	1431.297432299325	259.853845859103	821.249357184497	1363.974675901512	433.114493399155	718.802702976966	1439.755947074076	597.339680289319	718.712748436546	1494.556632010019	409.222211966340	760.748228169008	943.465600868460	568.195216545507	830.563366344578	762.571860848893	543.926164816387	775.503083224657	642.429282844836	611.250522474348	864.599128131785	601.259704853750	534.046194112126	894.242529256897	521.700087262291	547.799976294901	775.680158129722	731.080792087271	324.396549872688	663.416820899521	636.928712202680	256.546477963163	718.763245408035	545.363289835282	326.079389161490	703.198153351508	479.694627197333	335.527426783835	674.281438016196	413.572863074794	327.137968012051	580.867790875234	303.058542227643	276.118171100993	623.538098197946	191.712184789199	352.394503427578	884.278744626328	435.297044169582	555.917640339733	840.112742415261	317.588086705311	617.130494623895	915.467637323971	237.385785984543	564.613274124787	834.472949114839	46.119647652399	532.746497421896	993.769895926133	128.245547381572	576.800436019863	918.283609161056	47.120223833333	606.776179719664	1119.193663144791	95.952059796272	602.069430916343	488.239756275414	38.784932392178	398.259573100514	561.272271024048	35.050390854202	316.742890807644	645.553716626089	95.682147024684	342.075820919895	773.043856553048	42.037584243502	313.315132779810	800.099988062112	1103.129221500019	101.824494961983	1047.592889663290	1022.718252488106	101.624881609541	564.574947694147	1130.866868038868	699.890024826981	519.241992534973	875.870695187319	722.376651568249	
20	14.379214285714	775.386899619632	956.362000153225	295.354320801947	548.445880143319	1002.318966852150	429.987113818315	739.113549028314	1430.196748269298	262.632828805747	821.500755482340	1362.880921901158	435.962896719768	718.637830043066	1438.288719279582	600.178070275374	718.645225562992	1493.170731895693	412.026685105053	761.958874319673	941.776762093166	570.370177012372	831.096447038705	760.149728388143	546.173502429787	774.323054682875	639.815331370465	612.174638958757	863.711427146704	598.895643549260	535.390473892094	892.313956555603	519.803526493170	548.235272085317	775.428605784643	729.472357451801	325.743765754859	662.285114638379	636.247961897423	257.775212147296	716.670791909508	544.160674021031	327.247432800680	700.495493582752	478.324424635968	336.614857787851	670.951754870924	412.455356108822	328.021147204925	576.301994481386	302.970851334272	276.715240608675	617.753877734645	191.031779635081	352.741801411690	883.223187082284	433.080271983250	556.196519837462	839.503735815451	314.845324581131	616.526677519242	915.746803505094	235.456527148847	564.064406954049	835.989655246734	44.618695721821	531.191356442608	995.077695222999	126.304812637648	575.588477834747	919.585268884291	45.530658575725	605.393846254128	1120.423164331130	93.892334797426	601.146843734388	481.340268397914	38.582046149536	398.309935656178	554.374398518471	34.947200742397	316.793120888175	638.638947158264	95.591744618241	342.216902807000	766.173054575422	41.952475465896	313.329058376953	801.947674144775	1102.512685231383	104.437434060488	1050.797269067858	1027.073034228873	105.222576929011	563.307384493799	1129.805288684760	701.396574322186	517.234244787419	874.832771613172	723.202259028477	
21	14.392857142857	776.849069364617	955.188115571614	297.530556758924	549.775873483601	1000.487895197475	432.166315419489	739.367523440970	1429.064086709963	265.618913888920	821.796981277896	1361.760433690630	438.942908356365	718.525861385033	1436.651279060930	603.191910319106	718.575612275966	1491.731898436527	415.078136142198	763.472934844641	940.063024581447	572.623290745338	832.198944103513	757.850791351690	548.285950026445	773.825385682254	637.324865557398	612.926978997889	863.454876844337	596.727742935075	536.515419654630	890.840650776543	517.717818666623	548.455999074282	775.620312363129	727.844879833303	327.101327025644	661.623694778621	635.397385994413	259.226489895673	715.254423246841	542.824394655361	328.557522664667	698.511653677273	476.707490013671	337.916810238295	668.235180629693	411.072150378372	329.102469221338	572.128491294082	302.809080422089	277.486107088169	612.148956265913	190.176616335615	353.175043985107	882.190773545216	430.526613434440	556.300678386006	838.142114151363	312.107944230040	615.794445797874	914.572224169983	233.022051126813	563.330557089100	834.608254258564	43.368758075006	529.631584892542	993.973212641799	123.586060101628	574.144094813336	917.957211112923	43.875084034167	604.081706975519	1119.032910217550	90.270826474388	600.183100702454	474.433920621277	38.264427023714	398.352613165846	547.489876365230	34.762817829038	316.851140100334	631.733573555503	95.458359972641	342.374556711839	759.351196354421	41.852850939820	313.320223525673	803.427296847041	1101.710984439971	107.335753913733	1053.323585309460	1030.434481883778	109.034388096289	562.963893309454	1128.092868179230	703.189149991438	517.024621307619	872.942009970170	724.102700855119	
